<?xml version="1.0" encoding="UTF-8" standalone="no"?>
<svg
   version="1.0"
   width="2983.000000pt"
   height="4947.000000pt"
   viewBox="0 0 2983.000000 4947.000000"
   preserveAspectRatio="xMidYMid meet"
   id="svg8868"
   inkscape:version="1.4 (e7c3feb100, 2024-10-09)"
   sodipodi:docname="fic.svg"
   xmlns:inkscape="http://www.inkscape.org/namespaces/inkscape"
   xmlns:sodipodi="http://sodipodi.sourceforge.net/DTD/sodipodi-0.dtd"
   xmlns="http://www.w3.org/2000/svg"
   xmlns:svg="http://www.w3.org/2000/svg"
   xmlns:rdf="http://www.w3.org/1999/02/22-rdf-syntax-ns#"
   xmlns:cc="http://creativecommons.org/ns#"
   xmlns:dc="http://purl.org/dc/elements/1.1/">
  <defs
     id="defs8946" />
  <sodipodi:namedview
     pagecolor="#ffffff"
     bordercolor="#666666"
     borderopacity="1"
     objecttolerance="10"
     gridtolerance="10"
     guidetolerance="10"
     inkscape:pageopacity="0"
     inkscape:pageshadow="2"
     inkscape:window-width="1920"
     inkscape:window-height="1011"
     id="namedview8944"
     showgrid="false"
     inkscape:zoom="0.10794563"
     inkscape:cx="1338.6369"
     inkscape:cy="2871.8161"
     inkscape:window-x="0"
     inkscape:window-y="0"
     inkscape:window-maximized="1"
     inkscape:current-layer="g8872"
     inkscape:showpageshadow="2"
     inkscape:pagecheckerboard="0"
     inkscape:deskcolor="#d1d1d1"
     inkscape:document-units="pt" />
  <metadata
     id="metadata8870">
Created by potrace 1.11, written by Peter Selinger 2001-2013
<rdf:RDF>
  <cc:Work
     rdf:about="">
    <dc:format>image/svg+xml</dc:format>
    <dc:type
       rdf:resource="http://purl.org/dc/dcmitype/StillImage" />
  </cc:Work>
</rdf:RDF>
</metadata>
  <g
     transform="translate(0.000000,4947.000000) scale(0.100000,-0.100000)"
     fill="#000000"
     stroke="none"
     id="g8872">
    <rect
       style="fill:#ffffff;stroke:#ffffff;stroke-width:14.1732;stroke-linecap:square;stroke-linejoin:round;stroke-dasharray:56.6929, 56.6929;paint-order:fill markers stroke"
       id="rect1"
       width="29830.002"
       height="49470"
       x="-0.00087000005"
       y="-49470"
       transform="scale(1,-1)"
       rx="226.77167"
       ry="226.77167" />
    <path
       d="M -8.7e-4,34555 V 19640 H 14915 29830 V 34555 49470 H 14915 -8.7e-4 Z m 9104.99997,8795 c 506,-25 960.9999,-107 1377.9999,-249 227,-78 257,-91 257,-113 0,-11 -27,-187 -60,-391 -86,-532 -125,-769 -169,-1046 -22,-134 -42,-245 -44,-247 -2,-2 -48,14 -103,36 -284,116 -616.9999,192 -967.9999,221 -213,17 -629,7 -786,-20 -379,-65 -676,-198 -950,-427 -438,-364 -736,-988 -870,-1818 -62,-384 -80,-658 -87,-1308 l -6,-548 h 1462 1461 v -840 -840 h -1445 -1445 l -2,-5202 -3,-5203 -1102,-3 -1103,-2 v 5205 5205 h -835 -834.9999 v 840 840 h 834.9999 835 v 383 c 0,935 67,1566 234,2229 149,590 361,1088 651,1528 369,561 866,1005 1465,1309 582,297 1231,451 1965,469 33,1 155,-3 270,-8 z M 13032,42451 c 568,-123 961,-535 1060,-1115 28,-169 22,-440 -15,-596 -67,-282 -185,-499 -372,-685 -236,-236 -507,-358 -875,-396 -327.001,-33 -642.001,37 -914.001,205 -127,77 -295,242 -380,370 -386,584 -323,1369 149,1841 218,218 490,350 810,394 118.001,16 425.001,6 537.001,-18 z m 10528,-4752 c 896,-55 1825,-274 2432,-572 l 127,-62 -89,-300 c -50,-165 -112,-374 -140,-465 -27,-91 -99,-331 -160,-534 -60,-203 -112,-372 -115,-374 -3,-3 -67,24 -143,61 -568,272 -1193,433 -1892,487 -1454,111 -2629,-269 -3490,-1130 -442,-441 -761,-961 -991,-1612 -145,-412 -243,-901 -279,-1398 -13,-174 -13,-686 0,-860 79,-1074 426,-1991 1020,-2690 415,-489 928,-856 1530,-1093 275,-108 540,-182 831,-232 455,-77 1014,-85 1564,-24 636,71 1174,214 1809,483 60,25 113,43 116,39 4,-5 12,-33 19,-63 7,-30 86,-381 177,-780 91,-399 169,-742 174,-763 l 8,-39 -86,-40 c -504,-231 -1269,-445 -1981,-554 -498,-75 -831,-99 -1401,-99 -510,0 -659,10 -1053,66 -2208,314 -3848,1625 -4570,3654 -358,1005 -484,2207 -351,3360 133,1165 539,2228 1183,3100 171,232 331,416 566,651 352,352 643,583 1060,840 1143,706 2596,1038 4125,943 z m -9750,-6304 v -6045 h -1100 -1100.001 v 6045 6045 H 12710 13810 Z"
       id="path8874"
       style="fill:#326e76;fill-opacity:1"
       inkscape:connector-curvature="0" />
    <path
       d="M2954 17130 c-92 -13 -141 -27 -233 -72 -122 -58 -222 -159 -285 -288 -72 -148 -106 -312 -106 -512 l0 -97 -137 -3 -138 -3 -3 -137 -3 -138 141 0 140 0 0 -860 0 -860 180 0 180 0 0 860 0 860 240 0 240 0 0 140 0 141 -232 -1 c-128 0 -239 -1 -245 0 -27 0 -7 293 28 407 37 120 111 212 208 257 63 28 239 30 319 2 29 -10 55 -16 57 -14 11 11 47 260 39 268 -34 34 -277 65 -390 50z"
       id="path8876"
       style="fill-opacity:1;fill:#326e76" />
    <path
       d="M10960 15625 l0 -1465 180 0 180 0 0 1465 0 1465 -180 0 -180 0 0 -1465z"
       id="path8878"
       style="fill-opacity:1;fill:#326e76" />
    <path
       d="M17650 16495 c0 -327 -4 -595 -8 -595 -4 0 -15 12 -24 28 -9 15 -37 49 -62 75 -210 218 -631 261 -925 96 -315 -178 -491 -522 -491 -961 0 -341 98 -600 300 -798 344 -337 931 -290 1189 95 27 41 52 71 55 68 3 -4 6 -41 6 -83 0 -42 3 -118 6 -168 l7 -92 160 0 160 0 -6 68 c-4 37 -7 696 -7 1465 l0 1397 -180 0 -180 0 0 -595z m-415 -590 c89 -23 162 -63 231 -128 76 -70 117 -133 152 -229 27 -73 27 -74 27 -373 0 -328 -1 -337 -62 -464 -49 -103 -151 -205 -254 -254 -218 -105 -473 -59 -634 115 -121 130 -181 298 -192 529 -19 410 160 724 457 803 73 19 201 20 275 1z"
       id="path8880"
       style="fill-opacity:1;fill:#326e76" />
    <path
       d="M23920 16499 c0 -326 -1 -594 -4 -596 -2 -2 -13 12 -25 31 -60 96 -223 204 -371 243 -93 25 -330 25 -420 -1 -325 -93 -555 -343 -646 -702 -34 -136 -48 -320 -34 -463 28 -285 116 -487 285 -656 168 -168 346 -241 580 -239 128 2 229 24 333 74 141 67 236 153 310 279 l27 46 7 -40 c4 -22 7 -78 8 -125 0 -47 3 -109 6 -137 l7 -53 160 0 159 0 -7 28 c-4 15 -10 674 -12 1465 l-5 1437 -179 0 -179 0 0 -591z m-405 -594 c184 -48 341 -206 389 -391 22 -85 23 -602 2 -682 -65 -243 -260 -410 -499 -428 -287 -21 -512 158 -599 477 -20 74 -23 106 -22 274 0 164 3 201 22 270 87 314 291 492 567 494 45 1 107 -6 140 -14z"
       id="path8882"
       style="fill-opacity:1;fill:#326e76" />
    <path
       d="M12503 16577 l-163 -51 0 -183 0 -183 -155 0 -155 0 0 -140 0 -140 154 0 155 0 3 -652 c4 -638 4 -655 26 -733 56 -204 151 -305 337 -361 100 -30 301 -23 445 16 l40 11 -6 92 c-3 51 -7 111 -10 135 l-5 43 -37 -8 c-20 -4 -86 -8 -147 -8 -94 0 -116 3 -151 22 -54 29 -87 69 -116 140 l-23 58 -3 622 -3 623 258 2 258 3 0 135 0 135 -257 3 -258 2 0 235 c0 182 -3 235 -12 234 -7 -1 -86 -24 -175 -52z"
       id="path8884"
       style="fill-opacity:1;fill:#326e76" />
    <path
       d="M4315 16193 c-127 -13 -355 -83 -452 -139 l-42 -24 20 -63 c11 -34 29 -87 40 -118 l20 -56 62 33 c155 84 392 129 558 106 231 -33 359 -189 359 -438 l0 -64 -62 0 c-100 0 -283 -19 -402 -41 -266 -49 -441 -132 -571 -271 -144 -152 -199 -373 -145 -582 25 -98 61 -165 128 -237 96 -104 209 -158 378 -180 231 -29 520 76 647 236 23 30 47 54 53 54 7 1 16 -41 23 -106 7 -60 15 -116 17 -125 5 -16 21 -18 164 -18 l159 0 -5 38 c-3 20 -8 51 -11 67 -3 17 -9 320 -13 675 l-7 645 -25 96 c-80 297 -267 466 -567 509 -64 9 -244 11 -326 3z m573 -1240 l-3 -228 -39 -73 c-94 -175 -258 -272 -463 -272 -112 0 -181 26 -249 94 -73 73 -97 141 -92 266 3 83 7 104 35 160 17 36 47 79 65 97 120 115 343 179 631 182 l119 1 -4 -227z"
       id="path8886"
       style="fill-opacity:1;fill:#326e76" />
    <path
       d="M6909 16190 c-471 -75 -781 -368 -870 -823 -24 -122 -25 -325 -3 -452 64 -372 283 -634 624 -747 114 -38 211 -52 365 -51 159 0 295 21 430 64 136 43 130 32 99 174 -15 66 -30 124 -34 128 -4 4 -31 -2 -60 -13 -143 -56 -352 -82 -495 -60 -356 54 -585 343 -585 738 0 379 186 653 505 743 158 45 409 28 558 -38 34 -15 61 -22 66 -17 4 5 23 61 41 124 18 63 35 120 37 126 6 16 -79 50 -199 80 -84 21 -133 26 -263 29 -88 2 -185 0 -216 -5z"
       id="path8888"
       style="fill-opacity:1;fill:#326e76" />
    <path
       d="M14395 16186 c-165 -28 -316 -78 -422 -139 l-31 -18 39 -118 40 -118 62 33 c211 115 525 145 697 68 139 -62 220 -210 220 -400 l0 -64 -62 0 c-100 0 -283 -19 -402 -41 -418 -78 -660 -267 -722 -565 -56 -267 64 -532 292 -643 185 -90 453 -87 645 9 92 45 185 115 227 170 20 27 42 49 48 49 6 1 16 -40 23 -96 6 -54 14 -110 17 -125 l6 -28 159 0 159 0 -6 58 c-3 31 -8 64 -12 72 -3 8 -8 305 -12 660 -8 734 -6 715 -96 899 -81 165 -198 260 -389 316 -76 23 -114 27 -245 31 -101 2 -183 -1 -235 -10z m615 -1213 c0 -241 -7 -273 -76 -375 -96 -141 -247 -218 -431 -218 -105 0 -179 26 -244 87 -73 68 -94 125 -94 258 0 99 3 116 27 168 86 184 327 281 706 286 l112 1 0 -207z"
       id="path8890"
       style="fill-opacity:1;fill:#326e76" />
    <path
       d="M19502 16175 c-209 -56 -381 -178 -502 -355 -150 -221 -221 -533 -190 -830 50 -469 327 -778 769 -855 167 -30 459 -14 650 35 72 18 209 65 218 74 3 3 -57 238 -62 244 -2 2 -46 -10 -97 -27 -150 -48 -215 -56 -428 -56 -186 1 -199 2 -277 28 -97 33 -216 109 -273 175 -86 101 -144 253 -157 411 l-6 84 701 -6 701 -6 7 36 c4 20 4 104 1 187 -10 290 -99 519 -262 682 -146 144 -310 204 -560 203 -116 0 -156 -4 -233 -24z m330 -236 c220 -46 369 -250 380 -519 l3 -65 -524 -3 c-289 -1 -528 1 -532 5 -11 11 18 146 48 220 73 183 218 320 378 359 64 16 179 17 247 3z"
       id="path8892"
       style="fill-opacity:1;fill:#326e76" />
    <path
       d="M25785 16176 c-117 -31 -188 -63 -280 -127 -221 -152 -366 -407 -409 -718 -84 -599 182 -1055 689 -1182 107 -27 329 -36 488 -19 197 20 464 97 452 129 -3 8 -18 62 -32 120 -14 58 -27 107 -29 109 -1 2 -40 -8 -86 -23 -141 -45 -214 -56 -403 -61 -211 -5 -274 6 -405 68 -154 73 -272 221 -315 395 -19 74 -36 214 -28 227 4 6 278 7 700 3 645 -5 695 -4 701 11 15 36 6 315 -12 400 -74 345 -244 560 -518 654 -88 30 -103 32 -258 35 -148 3 -174 1 -255 -21z m316 -236 c226 -43 376 -247 390 -530 l3 -55 -527 -3 c-439 -2 -528 0 -533 12 -3 7 2 44 11 81 46 201 152 359 295 443 91 54 239 75 361 52z"
       id="path8894"
       style="fill-opacity:1;fill:#326e76" />
    <path
       d="M8337 16153 c-12 -11 -8 -1175 4 -1306 37 -408 214 -650 524 -718 82 -18 255 -16 337 4 178 43 327 140 429 278 29 38 55 69 59 69 4 0 11 -71 16 -157 l9 -158 158 -3 159 -3 -6 58 c-3 32 -8 482 -12 1001 l-7 942 -173 0 -173 0 -3 -667 c-3 -665 -4 -668 -26 -728 -65 -171 -221 -311 -389 -346 -74 -15 -204 -7 -265 17 -152 61 -241 199 -273 428 -11 79 -15 235 -15 699 l0 597 -173 0 c-96 0 -177 -3 -180 -7z"
       id="path8896"
       style="fill-opacity:1;fill:#326e76" />
    <path
       d="M7225 11544 c-357 -80 -555 -388 -555 -866 l0 -98 -140 0 -140 0 0 -135 0 -135 140 0 140 0 0 -865 0 -865 178 2 177 3 3 863 2 862 240 0 240 0 0 135 0 135 -242 2 -243 3 3 135 c5 228 48 367 142 460 71 72 137 93 275 88 67 -3 128 -11 155 -21 24 -9 45 -15 47 -14 7 7 45 268 40 273 -3 4 -37 15 -74 26 -94 27 -294 33 -388 12z"
       id="path8898"
       style="fill-opacity:1;fill:#326e76" />
    <path
       d="M2408 11406 c-140 -38 -206 -198 -137 -331 37 -74 92 -108 179 -113 81 -5 129 9 177 51 87 76 99 226 27 323 -46 63 -159 95 -246 70z"
       id="path8900"
       style="fill-opacity:1;fill:#326e76" />
    <path
       d="M17845 11363 c-153 -248 -308 -501 -316 -515 -9 -17 -1 -18 114 -18 l123 0 245 286 c134 158 246 290 247 295 2 5 -82 9 -187 9 l-191 0 -35 -57z"
       id="path8902"
       style="fill-opacity:1;fill:#326e76" />
    <path
       d="M21589 11406 c-63 -18 -102 -50 -134 -109 -50 -90 -32 -203 43 -280 41 -42 83 -57 163 -57 184 0 289 202 186 358 -54 80 -160 116 -258 88z"
       id="path8904"
       style="fill-opacity:1;fill:#326e76" />
    <path
       d="M19955 11044 c-22 -7 -100 -32 -173 -54 l-133 -42 1 -171 c1 -95 1 -178 1 -184 -1 -10 -39 -13 -156 -13 l-155 0 0 -135 0 -135 155 0 c117 0 155 -3 155 -12 0 -7 0 -258 0 -558 0 -697 9 -800 85 -956 57 -118 151 -189 296 -225 70 -18 103 -21 204 -17 66 3 153 14 193 23 l72 18 0 56 c0 31 -3 93 -6 137 l-7 81 -36 -8 c-20 -5 -85 -9 -146 -9 -129 0 -173 15 -224 76 -17 22 -42 70 -54 109 -22 69 -22 78 -22 675 l0 605 258 3 257 2 0 135 0 135 -257 2 -258 3 -5 236 -5 236 -40 -13z"
       id="path8906"
       style="fill-opacity:1;fill:#326e76" />
    <path
       d="M4685 10619 c-201 -26 -401 -145 -512 -306 -20 -29 -39 -53 -43 -53 -4 0 -10 60 -14 133 -4 72 -9 144 -12 160 l-6 27 -155 0 -156 0 6 -97 c4 -54 7 -504 7 -1000 l0 -903 180 0 180 0 0 628 c0 357 4 653 10 687 14 91 78 210 148 279 77 76 131 110 213 136 92 30 244 25 334 -10 75 -29 170 -121 207 -200 63 -134 61 -113 67 -845 l6 -670 178 -3 178 -2 -3 702 -4 703 -27 99 c-79 283 -238 450 -492 519 -72 19 -207 27 -290 16z"
       id="path8908"
       style="fill-opacity:1;fill:#326e76" />
    <path
       d="M9050 10619 c-150 -18 -320 -81 -440 -162 -66 -45 -176 -154 -225 -222 -154 -217 -223 -525 -185 -835 51 -415 316 -732 695 -831 117 -30 295 -36 426 -14 413 69 697 344 790 765 31 139 34 399 6 530 -75 349 -272 595 -569 710 -140 54 -343 78 -498 59z m304 -292 c150 -55 250 -155 332 -332 59 -127 78 -227 78 -410 -1 -141 -4 -172 -27 -257 -70 -262 -218 -434 -430 -499 -91 -28 -253 -24 -338 10 -194 75 -336 260 -395 517 -29 125 -25 358 9 488 31 115 90 242 144 306 81 98 206 176 319 199 83 17 229 6 308 -22z"
       id="path8910"
       style="fill-opacity:1;fill:#326e76" />
    <path
       d="M11950 10620 c-101 -18 -214 -75 -294 -149 -56 -52 -136 -169 -162 -236 -9 -25 -20 -45 -24 -45 -8 0 -20 148 -20 249 0 36 -3 83 -6 104 l-7 37 -155 0 -155 0 9 -47 c5 -27 9 -475 9 -998 l0 -950 177 -3 177 -2 3 617 c4 547 6 625 21 678 78 271 277 428 525 412 l82 -5 0 168 0 167 -52 7 c-60 7 -66 7 -128 -4z"
       id="path8912"
       style="fill-opacity:1;fill:#326e76" />
    <path
       d="M13895 10619 c-92 -14 -204 -55 -271 -99 -70 -45 -182 -159 -216 -220 -13 -22 -28 -40 -34 -40 -8 0 -14 51 -19 160 l-7 160 -160 0 c-149 0 -160 -1 -152 -17 4 -10 10 -460 12 -1000 l4 -983 174 0 174 0 0 638 c0 707 0 703 66 834 49 98 148 197 241 241 64 30 75 32 178 32 105 0 114 -2 177 -33 149 -73 225 -225 242 -482 3 -41 5 -335 6 -652 l0 -578 170 0 170 0 0 628 c0 751 2 772 97 914 50 76 122 138 203 177 50 24 66 26 175 26 111 0 124 -2 177 -28 79 -39 157 -126 193 -213 58 -147 58 -143 62 -851 l4 -653 175 0 174 0 0 623 c0 613 -5 734 -35 870 -61 274 -215 455 -449 526 -170 52 -390 25 -545 -66 -82 -49 -205 -164 -256 -242 -22 -33 -43 -61 -46 -61 -3 0 -23 34 -43 75 -44 89 -144 197 -226 242 -114 64 -281 93 -415 72z"
       id="path8914"
       style="fill-opacity:1;fill:#326e76" />
    <path
       d="M17540 10619 c-47 -4 -138 -22 -202 -38 -124 -31 -308 -111 -308 -133 0 -23 72 -229 78 -226 184 97 291 128 473 135 153 6 210 -3 300 -48 124 -62 196 -195 201 -374 l3 -80 -151 -7 c-436 -20 -746 -133 -914 -334 -118 -140 -166 -355 -121 -534 30 -121 65 -184 147 -267 125 -126 273 -179 479 -170 162 7 269 40 396 122 66 43 137 108 166 152 9 13 20 20 24 16 5 -5 16 -60 24 -123 9 -63 19 -118 21 -122 3 -4 75 -8 161 -8 l155 0 -6 53 c-17 140 -26 404 -26 838 0 376 -3 494 -15 562 -43 249 -157 417 -349 514 -118 60 -350 91 -536 72z m558 -1169 c5 -279 -19 -366 -132 -487 -168 -180 -475 -216 -625 -73 -23 22 -54 66 -69 98 -24 50 -27 69 -27 162 0 99 2 110 33 172 58 119 173 197 359 244 100 25 267 43 388 40 l70 -1 3 -155z"
       id="path8916"
       style="fill-opacity:1;fill:#326e76" />
    <path
       d="M23785 10619 c-253 -24 -479 -125 -645 -288 -174 -171 -280 -422 -296 -698 -26 -456 169 -826 524 -995 46 -22 127 -51 180 -65 88 -24 114 -26 292 -27 217 0 321 16 483 75 l84 30 -31 135 c-25 111 -33 133 -46 128 -134 -58 -265 -84 -425 -84 -225 0 -404 78 -533 233 -58 70 -128 216 -148 307 -23 105 -23 312 0 412 60 264 219 450 450 524 166 54 442 40 603 -31 31 -14 57 -24 58 -23 4 7 75 257 75 265 0 8 -82 42 -150 62 -135 39 -324 55 -475 40z"
       id="path8918"
       style="fill-opacity:1;fill:#326e76" />
    <path
       d="M25850 10615 c-161 -22 -300 -64 -432 -131 -27 -14 -48 -28 -48 -32 0 -8 71 -225 75 -230 2 -2 27 11 57 27 137 78 305 115 492 109 123 -3 135 -6 201 -36 150 -71 225 -196 228 -385 l2 -82 -151 -7 c-284 -13 -511 -64 -689 -156 -118 -61 -246 -185 -293 -282 -62 -130 -82 -266 -58 -400 42 -233 211 -407 446 -456 98 -21 277 -14 371 14 146 44 286 131 356 222 21 27 41 49 45 50 7 0 9 -12 31 -170 l12 -85 159 -3 158 -3 -6 43 c-4 24 -11 336 -16 693 -8 629 -11 686 -44 813 -58 226 -207 388 -421 455 -129 41 -315 53 -475 32z m588 -1180 c3 -197 -8 -286 -45 -358 -36 -72 -154 -187 -225 -220 -241 -113 -495 -44 -564 153 -28 80 -25 215 6 295 31 79 111 159 205 204 132 63 346 101 550 97 l70 -1 3 -170z"
       id="path8920"
       style="fill-opacity:1;fill:#326e76" />
    <path
       d="M2300 9580 l0 -1000 175 0 175 0 0 1000 0 1000 -175 0 -175 0 0 -1000z"
       id="path8922"
       style="fill-opacity:1;fill:#326e76" />
    <path
       d="M21480 9580 l0 -1000 178 2 177 3 3 998 2 997 -180 0 -180 0 0 -1000z"
       id="path8924"
       style="fill-opacity:1;fill:#326e76" />
    <path
       d="M3659 5343 l0 -598 -22 30 c-83 114 -215 204 -362 247 -115 33 -335 33 -448 0 -384 -111 -627 -444 -669 -916 -49 -547 215 -1002 647 -1115 99 -26 291 -29 398 -5 184 40 364 167 453 320 14 24 30 44 35 44 5 0 10 -17 10 -37 1 -21 4 -96 8 -168 l6 -130 160 0 c138 0 159 2 155 15 -3 8 -6 666 -8 1463 l-3 1447 -180 0 -179 0 -1 -597z m-410 -588 c193 -46 350 -208 397 -411 12 -55 15 -120 12 -353 -3 -282 -4 -287 -30 -360 -69 -188 -223 -328 -405 -366 -298 -63 -561 102 -661 415 -33 103 -45 186 -45 320 0 461 235 766 593 769 41 0 104 -6 139 -14z"
       id="path8926"
       style="fill-opacity:1;fill:#326e76" />
    <path
       d="M23295 5713 c-19 -111 -43 -138 -119 -137 -43 0 -73 12 -196 76 -161 84 -216 98 -299 78 -119 -28 -210 -183 -211 -357 l0 -43 89 0 88 0 12 61 c8 40 21 70 41 92 46 51 88 44 260 -45 136 -70 144 -73 221 -77 102 -4 154 14 207 74 49 55 73 127 79 233 l6 82 -86 0 -86 0 -6 -37z"
       id="path8928"
       style="fill-opacity:1;fill:#326e76" />
    <path
       d="M6065 5039 c-146 -21 -410 -110 -452 -152 -14 -14 -10 -28 53 -204 l15 -42 47 28 c205 121 533 156 709 76 140 -63 222 -210 223 -396 l0 -66 -132 -7 c-442 -24 -726 -120 -902 -306 -146 -155 -200 -373 -146 -584 27 -107 63 -169 145 -252 118 -119 240 -164 445 -164 142 0 244 22 349 74 88 45 181 116 222 171 19 24 39 45 45 45 7 0 16 -43 23 -107 7 -60 15 -116 17 -125 5 -16 21 -18 164 -18 l159 0 -5 38 c-3 20 -8 46 -11 57 -3 11 -9 313 -13 670 -9 732 -9 741 -88 908 -92 194 -234 300 -467 348 -97 20 -289 24 -400 8z m603 -1232 l-3 -223 -38 -76 c-51 -104 -147 -193 -255 -239 -98 -41 -246 -52 -333 -25 -122 39 -202 138 -218 271 -39 328 218 508 732 514 l118 1 -3 -223z"
       id="path8930"
       style="fill-opacity:1;fill:#326e76" />
    <path
       d="M11177 5035 c-438 -74 -748 -367 -840 -795 -27 -126 -29 -366 -4 -491 81 -409 334 -673 726 -760 110 -24 367 -26 497 -4 108 19 213 47 275 73 l46 20 -29 129 c-16 70 -31 129 -32 131 -2 1 -50 -13 -107 -32 -164 -54 -319 -68 -475 -41 -156 27 -292 105 -391 224 -113 137 -166 302 -166 516 0 159 23 267 85 394 58 119 179 242 288 294 119 57 186 70 340 70 148 0 236 -15 345 -58 36 -15 68 -25 70 -23 9 9 75 252 71 263 -6 18 -177 71 -285 89 -112 19 -304 19 -414 1z"
       id="path8932"
       style="fill-opacity:1;fill:#326e76" />
    <path
       d="M13949 5040 c-25 -4 -80 -17 -123 -29 -364 -100 -616 -396 -682 -801 -18 -111 -18 -322 1 -435 63 -387 307 -671 667 -776 105 -31 359 -38 478 -14 223 45 415 156 550 317 260 311 313 863 120 1248 -120 239 -322 400 -590 471 -93 24 -334 35 -421 19z m312 -278 c164 -46 297 -179 376 -374 67 -164 85 -409 45 -602 -80 -384 -387 -617 -711 -541 -212 50 -385 242 -452 500 -46 178 -34 450 27 613 55 148 149 275 254 342 120 77 313 103 461 62z"
       id="path8934"
       style="fill-opacity:1;fill:#326e76" />
    <path
       d="M17290 5034 c-173 -46 -336 -190 -405 -359 -11 -28 -24 -52 -30 -55 -6 -3 -13 63 -18 180 -4 102 -9 191 -12 198 -3 9 -44 12 -156 12 l-152 0 6 -172 c4 -95 7 -545 7 -1001 l0 -827 178 2 177 3 5 630 c5 629 5 630 29 695 35 98 94 192 157 249 100 91 189 123 342 122 l92 -1 0 164 c0 140 -2 165 -16 170 -28 11 -148 5 -204 -10z"
       id="path8936"
       style="fill-opacity:1;fill:#326e76" />
    <path
       d="M22946 5034 c-191 -42 -370 -161 -461 -306 -17 -27 -33 -48 -36 -48 -4 0 -9 48 -13 108 -4 59 -9 133 -13 165 l-6 57 -155 0 -155 0 6 -122 c4 -66 7 -516 7 -1000 l0 -878 180 0 180 0 0 638 c0 702 1 708 62 826 45 85 156 194 238 234 90 44 186 59 289 45 185 -24 305 -138 367 -348 16 -54 18 -124 21 -727 l4 -668 180 0 180 0 -4 693 c-3 664 -4 695 -25 779 -42 172 -116 306 -222 401 -67 60 -136 99 -235 133 -102 34 -280 43 -389 18z"
       id="path8938"
       style="fill-opacity:1;fill:#326e76" />
    <path
       d="M25900 5045 c-8 -2 -49 -9 -90 -15 -41 -7 -113 -23 -159 -37 -97 -28 -261 -101 -261 -116 0 -10 70 -218 76 -226 2 -2 41 15 87 38 133 66 255 93 422 95 123 1 148 -2 208 -22 163 -57 249 -184 264 -393 l6 -86 -139 -7 c-437 -23 -720 -118 -900 -302 -67 -69 -125 -173 -149 -269 -19 -76 -19 -244 0 -318 40 -152 146 -287 281 -355 135 -68 366 -84 530 -36 134 38 216 86 313 181 46 46 87 81 89 78 3 -3 12 -58 21 -123 l16 -117 161 -3 160 -2 -8 52 c-5 29 -13 346 -17 703 -7 546 -11 661 -25 722 -74 322 -248 495 -553 548 -73 13 -286 19 -333 10z m560 -1208 c0 -142 -4 -209 -16 -252 -53 -205 -256 -354 -485 -356 -198 -2 -326 102 -349 287 -42 324 219 507 728 513 l122 1 0 -193z"
       id="path8940"
       style="fill-opacity:1;fill:#326e76" />
    <path
       d="M18844 4995 c-3 -8 -4 -310 -1 -672 5 -701 8 -739 58 -891 79 -240 233 -393 450 -446 96 -23 284 -22 384 4 94 24 195 73 272 133 71 55 99 85 151 160 22 32 42 54 45 50 3 -4 8 -71 11 -148 4 -77 10 -148 12 -157 5 -16 21 -18 157 -18 l152 0 -3 987 c-1 544 -4 994 -7 1001 -3 9 -48 12 -179 12 l-175 0 -3 -667 c-4 -748 0 -712 -78 -831 -110 -171 -286 -263 -475 -249 -231 17 -356 159 -400 454 -12 78 -15 220 -15 696 l0 597 -175 0 c-145 0 -177 -3 -181 -15z"
       id="path8942"
       style="fill-opacity:1;fill:#326e76" />
  </g>
</svg>
